<?xml version="1.0" encoding="iso-8859-1"?>
<!-- Generator: Adobe Illustrator 16.0.3, SVG Export Plug-In . SVG Version: 6.00 Build 0)  -->
<!DOCTYPE svg PUBLIC "-//W3C//DTD SVG 1.1//EN" "http://www.w3.org/Graphics/SVG/1.1/DTD/svg11.dtd">
<svg version="1.1" xmlns="http://www.w3.org/2000/svg" xmlns:xlink="http://www.w3.org/1999/xlink" x="0px" y="0px"
	 width="51.689px" height="82.181px" viewBox="0 0 51.689 82.181" style="enable-background:new 0 0 51.689 82.181;"
	 xml:space="preserve">
<g id="Layer_5">
	<g id="Map_Marker_-_Orange">
		<g>
			<path style="fill:#E19F5F;" d="M50.277,25.845c0,13.493-16.012,54.923-24.432,54.923c-7.945,0-24.434-41.43-24.434-54.923
				c0-13.494,10.939-24.432,24.434-24.432S50.277,12.351,50.277,25.845z"/>
			<path style="fill:#CE8337;" d="M25.846,82.181c-5.76,0-12.807-14.574-16.496-23.262C4.695,47.962,0,33.484,0,25.845
				C0,11.594,11.594,0,25.846,0s25.844,11.594,25.844,25.845C51.689,38.987,35.988,82.181,25.846,82.181z M25.846,2.825
				c-12.695,0-23.021,10.328-23.021,23.02c0,6.173,3.754,19.32,9.125,31.971c6.285,14.8,11.611,21.54,13.896,21.54
				c2.424,0,7.861-6.74,14.07-21.536c5.268-12.551,8.947-25.7,8.947-31.975C48.863,13.153,38.537,2.825,25.846,2.825z"/>
		</g>
		<circle style="fill:#FFFFFF;" cx="25.845" cy="25.784" r="16.464"/>
	</g>
</g>
<g id="Layer_1">
</g>
</svg>
