<?xml version="1.0" encoding="iso-8859-1"?>
<!-- Generator: Adobe Illustrator 16.0.3, SVG Export Plug-In . SVG Version: 6.00 Build 0)  -->
<!DOCTYPE svg PUBLIC "-//W3C//DTD SVG 1.1//EN" "http://www.w3.org/Graphics/SVG/1.1/DTD/svg11.dtd">
<svg version="1.1" xmlns="http://www.w3.org/2000/svg" xmlns:xlink="http://www.w3.org/1999/xlink" x="0px" y="0px"
	 width="51.693px" height="82.181px" viewBox="0 0 51.693 82.181" style="enable-background:new 0 0 51.693 82.181;"
	 xml:space="preserve">
<g id="Layer_3">
	<g id="Map_Marker_-_Teal">
		<g>
			<path style="fill:#5DB6B3;" d="M50.277,25.845c0,13.493-16.012,54.923-24.432,54.923c-7.945,0-24.43-41.43-24.43-54.923
				c0-13.494,10.939-24.432,24.43-24.432C39.34,1.413,50.277,12.351,50.277,25.845z"/>
			<path style="fill:#599A98;" d="M25.846,82.181c-5.756,0-12.807-14.574-16.496-23.262C4.695,47.962,0,33.484,0,25.845
				C0,11.594,11.594,0,25.846,0C40.1,0,51.693,11.594,51.693,25.845C51.693,38.987,35.992,82.181,25.846,82.181z M25.846,2.825
				c-12.691,0-23.018,10.328-23.018,23.02c0,6.173,3.752,19.32,9.123,31.971c6.285,14.8,11.609,21.54,13.895,21.54
				c2.424,0,7.861-6.74,14.072-21.536c5.27-12.551,8.947-25.7,8.947-31.975C48.865,13.153,38.539,2.825,25.846,2.825z"/>
		</g>
		<circle style="fill:#FFFFFF;" cx="25.847" cy="25.784" r="16.464"/>
	</g>
</g>
<g id="Layer_1">
</g>
</svg>
