<?xml version="1.0" encoding="utf-8"?>
<!-- Generator: Adobe Illustrator 16.0.3, SVG Export Plug-In . SVG Version: 6.00 Build 0)  -->
<!DOCTYPE svg PUBLIC "-//W3C//DTD SVG 1.1//EN" "http://www.w3.org/Graphics/SVG/1.1/DTD/svg11.dtd">
<svg version="1.1" id="Layer_1" xmlns="http://www.w3.org/2000/svg" xmlns:xlink="http://www.w3.org/1999/xlink" x="0px" y="0px"
	 width="51.69px" height="82.182px" viewBox="0 0 51.69 82.182" enable-background="new 0 0 51.69 82.182" xml:space="preserve">
<g id="Map_Marker_-_Blue">
	<g>
		<path fill="#516F93" d="M50.277,25.845c0,13.494-16.012,54.924-24.432,54.924c-7.945,0-24.434-41.43-24.434-54.924
			S12.351,1.414,25.845,1.414S50.277,12.351,50.277,25.845z"/>
		<path fill="#3F5B78" d="M25.845,82.181c-5.76,0-12.807-14.575-16.496-23.262C4.695,47.962,0,33.486,0,25.845
			C0,11.595,11.593,0,25.845,0c14.25,0,25.844,11.596,25.844,25.846C51.689,38.988,35.988,82.181,25.845,82.181z M25.845,2.826
			c-12.695,0-23.021,10.328-23.021,23.02c0,6.174,3.754,19.32,9.125,31.971c6.285,14.798,11.611,21.539,13.896,21.539
			c2.424,0,7.861-6.741,14.07-21.535c5.268-12.551,8.949-25.701,8.949-31.975C48.865,13.154,38.539,2.826,25.845,2.826z"/>
	</g>
	<circle fill="#FFFFFF" cx="25.844" cy="25.785" r="16.464"/>
</g>
</svg>
