<?xml version="1.0" encoding="iso-8859-1"?>
<!-- Generator: Adobe Illustrator 16.0.3, SVG Export Plug-In . SVG Version: 6.00 Build 0)  -->
<!DOCTYPE svg PUBLIC "-//W3C//DTD SVG 1.1//EN" "http://www.w3.org/Graphics/SVG/1.1/DTD/svg11.dtd">
<svg version="1.1" xmlns="http://www.w3.org/2000/svg" xmlns:xlink="http://www.w3.org/1999/xlink" x="0px" y="0px"
	 width="51.691px" height="82.182px" viewBox="0 0 51.691 82.182" style="enable-background:new 0 0 51.691 82.182;"
	 xml:space="preserve">
<g id="Layer_2">
	<g id="Map_Marker_-_Purple">
		<g>
			<path style="fill:#9C71A7;" d="M50.277,25.846c0,13.493-16.012,54.923-24.43,54.923c-7.947,0-24.434-41.43-24.434-54.923
				c0-13.494,10.939-24.433,24.434-24.433S50.277,12.352,50.277,25.846z"/>
			<path style="fill:#82548E;" d="M25.848,82.182c-5.76,0-12.809-14.574-16.498-23.263C4.695,47.963,0,33.485,0,25.846
				C0,11.595,11.596,0,25.848,0c14.25,0,25.844,11.595,25.844,25.846C51.691,38.988,35.99,82.182,25.848,82.182z M25.848,2.826
				c-12.695,0-23.021,10.327-23.021,23.02c0,6.173,3.754,19.32,9.125,31.97c6.285,14.8,11.609,21.54,13.896,21.54
				c2.424,0,7.861-6.74,14.07-21.535c5.268-12.552,8.947-25.701,8.947-31.975C48.865,13.153,38.539,2.826,25.848,2.826z"/>
		</g>
		<circle style="fill:#FFFFFF;" cx="25.846" cy="25.785" r="16.463"/>
	</g>
</g>
<g id="Layer_1">
</g>
</svg>
