<?xml version="1.0" encoding="iso-8859-1"?>
<!-- Generator: Adobe Illustrator 16.0.3, SVG Export Plug-In . SVG Version: 6.00 Build 0)  -->
<!DOCTYPE svg PUBLIC "-//W3C//DTD SVG 1.1//EN" "http://www.w3.org/Graphics/SVG/1.1/DTD/svg11.dtd">
<svg version="1.1" xmlns="http://www.w3.org/2000/svg" xmlns:xlink="http://www.w3.org/1999/xlink" x="0px" y="0px"
	 width="51.689px" height="82.182px" viewBox="0 0 51.689 82.182" style="enable-background:new 0 0 51.689 82.182;"
	 xml:space="preserve">
<g id="Layer_4">
	<g id="Map_Marker_-_Yellow">
		<g>
			<path style="fill:#E8CF51;" d="M50.277,25.846c0,13.493-16.012,54.923-24.434,54.923c-7.945,0-24.432-41.43-24.432-54.923
				c0-13.494,10.939-24.433,24.432-24.433C39.338,1.413,50.277,12.352,50.277,25.846z"/>
			<path style="fill:#D2BE41;" d="M25.844,82.182c-5.758,0-12.807-14.574-16.494-23.263C4.695,47.963,0,33.485,0,25.846
				C0,11.595,11.592,0,25.844,0s25.846,11.595,25.846,25.846C51.689,38.988,35.988,82.182,25.844,82.182z M25.844,2.826
				c-12.693,0-23.018,10.327-23.018,23.02c0,6.173,3.75,19.32,9.121,31.97c6.287,14.8,11.611,21.54,13.896,21.54
				c2.424,0,7.861-6.74,14.07-21.535c5.27-12.552,8.947-25.701,8.947-31.975C48.861,13.153,38.539,2.826,25.844,2.826z"/>
		</g>
		<circle style="fill:#FFFFFF;" cx="25.845" cy="25.785" r="16.464"/>
	</g>
</g>
<g id="Layer_1">
</g>
</svg>
