<?xml version="1.0" encoding="iso-8859-1"?>
<!-- Generator: Adobe Illustrator 16.0.3, SVG Export Plug-In . SVG Version: 6.00 Build 0)  -->
<!DOCTYPE svg PUBLIC "-//W3C//DTD SVG 1.1//EN" "http://www.w3.org/Graphics/SVG/1.1/DTD/svg11.dtd">
<svg version="1.1" xmlns="http://www.w3.org/2000/svg" xmlns:xlink="http://www.w3.org/1999/xlink" x="0px" y="0px"
	 width="51.691px" height="82.181px" viewBox="0 0 51.691 82.181" style="enable-background:new 0 0 51.691 82.181;"
	 xml:space="preserve">
<g id="Layer_7">
	<g id="Map_Marker_-_Pink">
		<g>
			<path style="fill:#E891B2;" d="M50.277,25.845c0,13.493-16.012,54.923-24.43,54.923c-7.947,0-24.434-41.43-24.434-54.923
				c0-13.494,10.939-24.432,24.434-24.432S50.277,12.351,50.277,25.845z"/>
			<path style="fill:#DC7398;" d="M25.848,82.181c-5.76,0-12.809-14.574-16.498-23.262C4.695,47.962,0,33.484,0,25.845
				C0,11.594,11.596,0,25.848,0s25.844,11.594,25.844,25.845C51.691,38.987,35.99,82.181,25.848,82.181z M25.848,2.825
				c-12.695,0-23.021,10.328-23.021,23.02c0,6.173,3.754,19.32,9.125,31.971c6.285,14.8,11.609,21.54,13.896,21.54
				c2.424,0,7.861-6.74,14.07-21.536c5.268-12.551,8.947-25.7,8.947-31.975C48.865,13.153,38.539,2.825,25.848,2.825z"/>
		</g>
		<circle style="fill:#FFFFFF;" cx="25.846" cy="25.784" r="16.463"/>
	</g>
</g>
<g id="Layer_1">
</g>
</svg>
